<?xml version="1.0" encoding="utf-8"?>
<!-- Generator: Adobe Illustrator 25.0.1, SVG Export Plug-In . SVG Version: 6.00 Build 0)  -->
<svg version="1.1" id="Capa_1" xmlns="http://www.w3.org/2000/svg" xmlns:xlink="http://www.w3.org/1999/xlink" x="0px" y="0px"
	 viewBox="0 0 250 250" style="enable-background:new 0 0 250 250;" xml:space="preserve">
<style type="text/css">
	.st0{fill:#76C1FF;}
	.st1{fill:#0080FF;}
	.st2{fill:url(#SVGID_1_);}
	.st3{fill:#FFFFFF;}
</style>
<rect class="st0" width="250" height="250"/>
<g>
	<path class="st1" d="M146.5,106.3h-15.1v34.4c0,3.8-1.4,7.1-4.1,9.9c-2.7,2.7-6,4.1-9.9,4.1c-3.8,0-7.1-1.4-9.9-4.1
		c-2.7-2.7-4.1-6-4.1-9.9c0-3.8,1.4-7.1,4.1-9.9c2.7-2.7,6-4.1,9.9-4.1c3.5,0,6.6,1.1,9.2,3.4v-35h4.7v6.3h15.1V106.3z M124,147.2
		c1.8-1.8,2.7-4,2.7-6.5c0-2.5-0.9-4.7-2.7-6.5c-1.8-1.8-4-2.7-6.5-2.7c-2.5,0-4.7,0.9-6.5,2.7c-1.8,1.8-2.7,4-2.7,6.5
		c0,2.5,0.9,4.7,2.7,6.5c1.8,1.8,4,2.7,6.5,2.7C120,149.9,122.2,149,124,147.2z"/>
</g>
<linearGradient id="SVGID_1_" gradientUnits="userSpaceOnUse" x1="0.142" y1="250.1417" x2="247.6415" y2="2.0797">
	<stop  offset="1.858367e-03" style="stop-color:#D90075"/>
	<stop  offset="1" style="stop-color:#E95739"/>
</linearGradient>
<rect x="0" class="st2" width="250" height="250"/>
<g>
	<path class="st3" d="M146.5,106.3h-15.1v34.4c0,3.8-1.4,7.1-4.1,9.9c-2.7,2.7-6,4.1-9.9,4.1c-3.8,0-7.1-1.4-9.9-4.1
		c-2.7-2.7-4.1-6-4.1-9.9c0-3.8,1.4-7.1,4.1-9.9c2.7-2.7,6-4.1,9.9-4.1c3.5,0,6.6,1.1,9.2,3.4v-35h4.7v6.3h15.1V106.3z M124,147.2
		c1.8-1.8,2.7-4,2.7-6.5c0-2.5-0.9-4.7-2.7-6.5c-1.8-1.8-4-2.7-6.5-2.7c-2.5,0-4.7,0.9-6.5,2.7c-1.8,1.8-2.7,4-2.7,6.5
		c0,2.5,0.9,4.7,2.7,6.5c1.8,1.8,4,2.7,6.5,2.7C120,149.9,122.2,149,124,147.2z"/>
</g>
</svg>
